<svg id="mermaidChart0" width="397" height="323" viewBox="20 0 397 323" version="1.1" xmlns="http://www.w3.org/2000/svg" xmlns:xlink="http://www.w3.org/1999/xlink"><style type="text/css" title="mermaid-svg-internal-css">/* <![CDATA[ */
#mermaidChart0 .node { fill:#ffa; stroke:#666; stroke-width:3px; }
#mermaidChart0 .node text  { fill:#000; stroke:none; font-weight:300; font-family:"Helvetica Neue",Helvetica,Arial,sans-serf; font-size:14px; }
#mermaidChart0 .edgeLabel text  { fill:#000; stroke:none; font-weight:300; font-family:"Helvetica Neue",Helvetica,Arial,sans-serf; font-size:14px; }
* { margin-top: 0px; margin-right: 0px; margin-bottom: 0px; margin-left: 0px; padding-top: 0px; padding-right: 0px; padding-bottom: 0px; padding-left: 0px;  }
/* ]]> */
</style><g><g class="output"><g class="clusters"><g class="cluster" style="opacity: 1; "><rect width="257" height="155" x="20" y="20"/></g><g class="cluster" style="opacity: 1; "><rect width="255" height="108" x="122" y="195"/></g></g><g class="edgePaths"><g class="edgePath" style="opacity: 1; "><path class="path" d="M72,104.51948051948052L97,74L122,74L147,74" marker-end="url(#arrowhead70)" style="stroke: #333; stroke-width: 1.5px;fill:none"/><defs><marker id="arrowhead70" viewBox="0 0 10 10" refX="9" refY="5" markerUnits="strokeWidth" markerWidth="8" markerHeight="6" orient="auto"><path d="M 0 0 L 0 0 L 0 0 z" style="fill: #333"/></marker></defs></g><g class="edgePath" style="opacity: 1; "><path class="path" d="M175,74L200,74L225,74" marker-end="url(#arrowhead71)" style="stroke: #333; stroke-width: 1.5px;fill:none"/><defs><marker id="arrowhead71" viewBox="0 0 10 10" refX="9" refY="5" markerUnits="strokeWidth" markerWidth="8" markerHeight="6" orient="auto"><path d="M 0 0 L 0 0 L 0 0 z" style="fill: #333"/></marker></defs></g><g class="edgePath" style="opacity: 1; "><path class="path" d="M175,249L200,249L225,249" marker-end="url(#arrowhead72)" style="stroke: #333; stroke-width: 1.5px;fill:none"/><defs><marker id="arrowhead72" viewBox="0 0 10 10" refX="9" refY="5" markerUnits="strokeWidth" markerWidth="8" markerHeight="6" orient="auto"><path d="M 0 0 L 0 0 L 0 0 z" style="fill: #333"/></marker></defs></g><g class="edgePath" style="opacity: 1; "><path class="path" d="M252,249L277,249L302,249L327,249" marker-end="url(#arrowhead73)" style="stroke: #333; stroke-width: 1.5px;fill:none"/><defs><marker id="arrowhead73" viewBox="0 0 10 10" refX="9" refY="5" markerUnits="strokeWidth" markerWidth="8" markerHeight="6" orient="auto"><path d="M 0 0 L 0 0 L 0 0 z" style="fill: #333"/></marker></defs></g><g class="edgePath" style="opacity: 1; "><path class="path" d="M72,132.92207792207793L97,155L122,155L153.11702127659575,230" marker-end="url(#arrowhead74)" style="stroke: #333; stroke-width: 1.5px;fill:none"/><defs><marker id="arrowhead74" viewBox="0 0 10 10" refX="9" refY="5" markerUnits="strokeWidth" markerWidth="8" markerHeight="6" orient="auto"><path d="M 0 0 L 0 0 L 0 0 z" style="fill: #333"/></marker></defs></g><g class="edgePath" style="opacity: 1; "><path class="path" d="M72,123.45454545454545L97,128L122,128L161,128L200,128L232.45454545454547,230" marker-end="url(#arrowhead75)" style="stroke: #333; stroke-width: 1.5px;fill:none"/><defs><marker id="arrowhead75" viewBox="0 0 10 10" refX="9" refY="5" markerUnits="strokeWidth" markerWidth="8" markerHeight="6" orient="auto"><path d="M 0 0 L 0 0 L 0 0 z" style="fill: #333"/></marker></defs></g></g><g class="edgeLabels"><g class="edgeLabel" style="opacity: 1; " transform=""><g transform="translate(0,0)" class="label"><text xmlns="http://www.w3.org/1999/xhtml"><tspan style="font-size: 11.5pt; font-family: &quot;sans-serif&quot;;" x="0" y="14.5"></tspan></text></g></g><g class="edgeLabel" style="opacity: 1; " transform=""><g transform="translate(0,0)" class="label"><text xmlns="http://www.w3.org/1999/xhtml"><tspan style="font-size: 11.5pt; font-family: &quot;sans-serif&quot;;" x="0" y="14.5"></tspan></text></g></g><g class="edgeLabel" style="opacity: 1; " transform=""><g transform="translate(0,0)" class="label"><text xmlns="http://www.w3.org/1999/xhtml"><tspan style="font-size: 11.5pt; font-family: &quot;sans-serif&quot;;" x="0" y="14.5"></tspan></text></g></g><g class="edgeLabel" style="opacity: 1; " transform=""><g transform="translate(0,0)" class="label"><text xmlns="http://www.w3.org/1999/xhtml"><tspan style="font-size: 11.5pt; font-family: &quot;sans-serif&quot;;" x="0" y="14.5"></tspan></text></g></g><g class="edgeLabel" style="opacity: 1; " transform=""><g transform="translate(0,0)" class="label"><text xmlns="http://www.w3.org/1999/xhtml"><tspan style="font-size: 11.5pt; font-family: &quot;sans-serif&quot;;" x="0" y="14.5"></tspan></text></g></g><g class="edgeLabel" style="opacity: 1; " transform=""><g transform="translate(0,0)" class="label"><text xmlns="http://www.w3.org/1999/xhtml"><tspan style="font-size: 11.5pt; font-family: &quot;sans-serif&quot;;" x="0" y="14.5"></tspan></text></g></g></g><g class="nodes"><g class="node" style="opacity: 1; " id="a" transform="translate(58.5,121)"><rect rx="0" ry="0" x="-13.5" y="-19" width="27" height="38"/><g class="label" transform="translate(0,0)"><g transform="translate(-3.5,-9)"><text xmlns="http://www.w3.org/1999/xhtml"><tspan style="font-size: 11.5pt; font-family: &quot;sans-serif&quot;;" x="0" y="14.5">a</tspan></text></g></g></g><g class="node" style="opacity: 1; " id="b" transform="translate(161,74)"><rect rx="0" ry="0" x="-14" y="-19" width="28" height="38"/><g class="label" transform="translate(0,0)"><g transform="translate(-4,-9)"><text xmlns="http://www.w3.org/1999/xhtml"><tspan style="font-size: 11.5pt; font-family: &quot;sans-serif&quot;;" x="0" y="14.5">b</tspan></text></g></g></g><g class="node" style="opacity: 1; " id="c" transform="translate(238.5,74)"><rect rx="0" ry="0" x="-13.5" y="-19" width="27" height="38"/><g class="label" transform="translate(0,0)"><g transform="translate(-3.5,-9)"><text xmlns="http://www.w3.org/1999/xhtml"><tspan style="font-size: 11.5pt; font-family: &quot;sans-serif&quot;;" x="0" y="14.5">c</tspan></text></g></g></g><g class="node" style="opacity: 1; " id="d" transform="translate(161,249)"><rect rx="0" ry="0" x="-14" y="-19" width="28" height="38"/><g class="label" transform="translate(0,0)"><g transform="translate(-4,-9)"><text xmlns="http://www.w3.org/1999/xhtml"><tspan style="font-size: 11.5pt; font-family: &quot;sans-serif&quot;;" x="0" y="14.5">d</tspan></text></g></g></g><g class="node" style="opacity: 1; " id="e" transform="translate(238.5,249)"><rect rx="0" ry="0" x="-13.5" y="-19" width="27" height="38"/><g class="label" transform="translate(0,0)"><g transform="translate(-3.5,-9)"><text xmlns="http://www.w3.org/1999/xhtml"><tspan style="font-size: 11.5pt; font-family: &quot;sans-serif&quot;;" x="0" y="14.5">e</tspan></text></g></g></g><g class="node" style="opacity: 1; " id="f" transform="translate(339.5,249)"><rect rx="0" ry="0" x="-12.5" y="-19" width="25" height="38"/><g class="label" transform="translate(0,0)"><g transform="translate(-2.5,-9)"><text xmlns="http://www.w3.org/1999/xhtml"><tspan style="font-size: 11.5pt; font-family: &quot;sans-serif&quot;;" x="0" y="14.5">f</tspan></text></g></g></g></g></g></g></svg>